REM DIRINDEX 1\2,1\3,1\4,1\5,1\6
REM DIRNAME cjc129,folder01,folder02,folder03,folder04,folder05
TITLE ""
FILE "DISC3Track22.mp3" MP3
  TRACK 01 AUDIO
    TITLE "0:"
    INDEX 01 00:00:00
  TRACK 02 AUDIO
    TITLE "2:cjc129_2647"
    INDEX 01 00:00:07
  TRACK 03 AUDIO
    TITLE "0:"
    INDEX 01 00:06:67
  TRACK 04 AUDIO
    TITLE "3:cjc129_2648"
    INDEX 01 00:08:07
  TRACK 05 AUDIO
    TITLE "0:"
    INDEX 01 00:09:51
  TRACK 06 AUDIO
    TITLE "5:cjc129_2649"
    INDEX 01 00:10:10
  TRACK 07 AUDIO
    TITLE "0:"
    INDEX 01 00:15:15
  TRACK 08 AUDIO
    TITLE "4:cjc129_2650"
    INDEX 01 00:16:04
  TRACK 09 AUDIO
    TITLE "0:"
    INDEX 01 00:17:51
  TRACK 10 AUDIO
    TITLE "6:cjc129_2651"
    INDEX 01 00:18:07
  TRACK 11 AUDIO
    TITLE "0:"
    INDEX 01 00:22:09
  TRACK 12 AUDIO
    TITLE "3:cjc129_2652"
    INDEX 01 00:23:57
  TRACK 13 AUDIO
    TITLE "0:"
    INDEX 01 00:25:23
  TRACK 14 AUDIO
    TITLE "5:cjc129_2653"
    INDEX 01 00:25:52
  TRACK 15 AUDIO
    TITLE "0:"
    INDEX 01 00:27:41
  TRACK 16 AUDIO
    TITLE "4:cjc129_2654"
    INDEX 01 00:28:31
  TRACK 17 AUDIO
    TITLE "0:"
    INDEX 01 00:29:70
  TRACK 18 AUDIO
    TITLE "6:cjc129_2655"
    INDEX 01 00:30:26
  TRACK 19 AUDIO
    TITLE "0:"
    INDEX 01 00:35:66
  TRACK 20 AUDIO
    TITLE "3:cjc129_2656"
    INDEX 01 00:37:40
  TRACK 21 AUDIO
    TITLE "0:"
    INDEX 01 00:39:25
  TRACK 22 AUDIO
    TITLE "5:cjc129_2657"
    INDEX 01 00:39:54
  TRACK 23 AUDIO
    TITLE "0:"
    INDEX 01 00:41:53
  TRACK 24 AUDIO
    TITLE "4:cjc129_2658"
    INDEX 01 00:42:43
  TRACK 25 AUDIO
    TITLE "0:"
    INDEX 01 00:44:26
  TRACK 26 AUDIO
    TITLE "6:cjc129_2659"
    INDEX 01 00:44:58
  TRACK 27 AUDIO
    TITLE "0:"
    INDEX 01 00:49:08
  TRACK 28 AUDIO
    TITLE "3:cjc129_2660"
    INDEX 01 00:50:60
  TRACK 29 AUDIO
    TITLE "0:"
    INDEX 01 00:52:37
  TRACK 30 AUDIO
    TITLE "5:cjc129_2661"
    INDEX 01 00:52:67
  TRACK 31 AUDIO
    TITLE "0:"
    INDEX 01 00:54:74
  TRACK 32 AUDIO
    TITLE "4:cjc129_2662"
    INDEX 01 00:55:65
  TRACK 33 AUDIO
    TITLE "0:"
    INDEX 01 00:57:41
  TRACK 34 AUDIO
    TITLE "6:cjc129_2663"
    INDEX 01 00:57:72
  TRACK 35 AUDIO
    TITLE "0:"
    INDEX 01 01:01:58
  TRACK 36 AUDIO
    TITLE "3:cjc129_2664"
    INDEX 01 01:03:33
  TRACK 37 AUDIO
    TITLE "0:"
    INDEX 01 01:05:09
  TRACK 38 AUDIO
    TITLE "5:cjc129_2665"
    INDEX 01 01:05:40
  TRACK 39 AUDIO
    TITLE "0:"
    INDEX 01 01:07:57
  TRACK 40 AUDIO
    TITLE "4:cjc129_2666"
    INDEX 01 01:08:48
  TRACK 41 AUDIO
    TITLE "0:"
    INDEX 01 01:10:24
  TRACK 42 AUDIO
    TITLE "6:cjc129_2667"
    INDEX 01 01:10:55
  TRACK 43 AUDIO
    TITLE "0:"
    INDEX 01 01:15:42
  TRACK 44 AUDIO
    TITLE "3:cjc129_2668"
    INDEX 01 01:17:18
  TRACK 45 AUDIO
    TITLE "0:"
    INDEX 01 01:18:53
  TRACK 46 AUDIO
    TITLE "5:cjc129_2669"
    INDEX 01 01:19:09
  TRACK 47 AUDIO
    TITLE "0:"
    INDEX 01 01:21:25
  TRACK 48 AUDIO
    TITLE "4:cjc129_2670"
    INDEX 01 01:22:13
  TRACK 49 AUDIO
    TITLE "0:"
    INDEX 01 01:23:50
  TRACK 50 AUDIO
    TITLE "6:cjc129_2671"
    INDEX 01 01:24:04
  TRACK 51 AUDIO
    TITLE "0:"
    INDEX 01 01:29:21
  TRACK 52 AUDIO
    TITLE "3:cjc129_2672"
    INDEX 01 01:30:69
  TRACK 53 AUDIO
    TITLE "0:"
    INDEX 01 01:32:47
  TRACK 54 AUDIO
    TITLE "5:cjc129_2673"
    INDEX 01 01:33:03
  TRACK 55 AUDIO
    TITLE "0:"
    INDEX 01 01:37:44
  TRACK 56 AUDIO
    TITLE "4:cjc129_2674"
    INDEX 01 01:38:32
  TRACK 57 AUDIO
    TITLE "0:"
    INDEX 01 01:40:09
  TRACK 58 AUDIO
    TITLE "6:cjc129_2675"
    INDEX 01 01:40:40
  TRACK 59 AUDIO
    TITLE "0:"
    INDEX 01 01:45:02
